<svg width="18" height="21" viewBox="0 0 18 21" fill="none" xmlns="http://www.w3.org/2000/svg">
<path d="M16.1747 10.0295H13.6494V2.08825C13.6494 1.21471 12.9347 0.5 12.0612 0.5H5.70818C4.83464 0.5 4.11993 1.21471 4.11993 2.08825V10.0295H1.59462C0.181079 10.0295 -0.533633 11.7448 0.466963 12.7454L7.75702 20.0354C8.37643 20.6549 9.37703 20.6549 9.99645 20.0354L17.2865 12.7454C18.2871 11.7448 17.5883 10.0295 16.1747 10.0295Z" fill="#0A0B0C"/>
<path d="M16.1747 10.0295H13.6494V2.08825C13.6494 1.21471 12.9347 0.5 12.0612 0.5H5.70818C4.83464 0.5 4.11993 1.21471 4.11993 2.08825V10.0295H1.59462C0.181079 10.0295 -0.533633 11.7448 0.466963 12.7454L7.75702 20.0354C8.37643 20.6549 9.37703 20.6549 9.99645 20.0354L17.2865 12.7454C18.2871 11.7448 17.5883 10.0295 16.1747 10.0295Z" fill="black" fill-opacity="0.2"/>
</svg>
