<svg width="16" height="16" viewBox="0 0 16 16" fill="none" xmlns="http://www.w3.org/2000/svg">
<mask id="path-1-inside-1_2_245" fill="white">
<path d="M4.94966 12.9686L1.61335 8.51531C1.24158 8.01908 0.650581 8.01908 0.27882 8.51531C-0.0929401 9.01153 -0.0929401 9.8004 0.27882 10.2966L4.27286 15.6278C4.64462 16.1241 5.24516 16.1241 5.61692 15.6278L15.7212 2.15348C16.0929 1.65726 16.0929 0.86839 15.7212 0.372167C15.3494 -0.124056 14.7584 -0.124056 14.3867 0.372167L4.94966 12.9686Z"/>
</mask>
<path d="M4.94966 12.9686L1.61335 8.51531C1.24158 8.01908 0.650581 8.01908 0.27882 8.51531C-0.0929401 9.01153 -0.0929401 9.8004 0.27882 10.2966L4.27286 15.6278C4.64462 16.1241 5.24516 16.1241 5.61692 15.6278L15.7212 2.15348C16.0929 1.65726 16.0929 0.86839 15.7212 0.372167C15.3494 -0.124056 14.7584 -0.124056 14.3867 0.372167L4.94966 12.9686Z" fill="#F99D49"/>
<path d="M4.94966 12.9686L1.7484 15.3669L4.94966 19.6399L8.15092 15.3669L4.94966 12.9686ZM1.61335 8.51531L4.8146 6.11699V6.11699L1.61335 8.51531ZM0.27882 10.2966L3.48008 7.8983V7.8983L0.27882 10.2966ZM4.27286 15.6278L1.0716 18.0262H1.0716L4.27286 15.6278ZM5.61692 15.6278L2.41675 13.2281L2.41566 13.2295L5.61692 15.6278ZM15.7212 2.15348L18.9214 4.55325L18.9224 4.5518L15.7212 2.15348ZM14.3867 0.372167L11.1854 -2.02615L14.3867 0.372167ZM8.15092 10.5703L4.8146 6.11699L-1.58791 10.9136L1.7484 15.3669L8.15092 10.5703ZM4.8146 6.11699C4.00773 5.03998 2.65492 4.14314 0.946083 4.14314C-0.762758 4.14314 -2.11557 5.03998 -2.92244 6.11699L3.48008 10.9136C3.04497 11.4944 2.17354 12.1431 0.946083 12.1431C-0.281376 12.1431 -1.1528 11.4944 -1.58791 10.9136L4.8146 6.11699ZM-2.92244 6.11699C-4.35919 8.03475 -4.35919 10.7772 -2.92244 12.6949L3.48008 7.8983C3.89019 8.44571 4 9.00132 4 9.40596C4 9.8106 3.89019 10.3662 3.48008 10.9136L-2.92244 6.11699ZM-2.92244 12.6949L1.0716 18.0262L7.47412 13.2295L3.48008 7.8983L-2.92244 12.6949ZM1.0716 18.0262C1.89106 19.12 3.25194 20 4.94489 20C6.63784 20 7.99872 19.12 8.81818 18.0262L2.41566 13.2295C2.86336 12.6319 3.73809 12 4.94489 12C6.1517 12 7.02642 12.6319 7.47412 13.2295L1.0716 18.0262ZM8.81709 18.0276L18.9214 4.55325L12.521 -0.246292L2.41675 13.2281L8.81709 18.0276ZM18.9224 4.5518C20.3592 2.63404 20.3592 -0.108394 18.9224 -2.02615L12.5199 2.77049C12.1098 2.22307 12 1.66746 12 1.26282C12 0.858184 12.1098 0.302571 12.5199 -0.244843L18.9224 4.5518ZM18.9224 -2.02615C18.1156 -3.10316 16.7628 -4 15.0539 -4C13.3451 -4 11.9923 -3.10316 11.1854 -2.02615L17.5879 2.77049C17.1528 3.35127 16.2814 4 15.0539 4C13.8265 4 12.955 3.35127 12.5199 2.77049L18.9224 -2.02615ZM11.1854 -2.02615L1.7484 10.5703L8.15092 15.3669L17.5879 2.77049L11.1854 -2.02615Z" fill="#F99D49" mask="url(#path-1-inside-1_2_245)"/>
</svg>
