<svg width="19" height="19" viewBox="0 0 19 19" fill="none" xmlns="http://www.w3.org/2000/svg">
<path d="M0.98774 0.98774C1.30694 0.66864 1.7398 0.48938 2.19114 0.48938C2.64249 0.48938 3.07535 0.66864 3.39455 0.98774L9.41327 7.00646L15.432 0.98774C15.753 0.677683 16.183 0.506119 16.6293 0.509997C17.0756 0.513875 17.5025 0.692886 17.8181 1.00847C18.1337 1.32406 18.3127 1.75098 18.3165 2.19727C18.3204 2.64356 18.1489 3.07352 17.8388 3.39455L11.8201 9.41327L17.8388 15.432C18.1489 15.753 18.3204 16.183 18.3165 16.6293C18.3127 17.0756 18.1337 17.5025 17.8181 17.8181C17.5025 18.1337 17.0756 18.3127 16.6293 18.3165C16.183 18.3204 15.753 18.1489 15.432 17.8388L9.41327 11.8201L3.39455 17.8388C3.07352 18.1489 2.64356 18.3204 2.19727 18.3165C1.75098 18.3127 1.32406 18.1337 1.00847 17.8181C0.692886 17.5025 0.513875 17.0756 0.509997 16.6293C0.506119 16.183 0.677683 15.753 0.98774 15.432L7.00646 9.41327L0.98774 3.39455C0.66864 3.07535 0.48938 2.64249 0.48938 2.19114C0.48938 1.7398 0.66864 1.30694 0.98774 0.98774Z" fill="white"/>
</svg>
