<svg width="32" height="33" viewBox="0 0 32 33" fill="none" xmlns="http://www.w3.org/2000/svg">
<path d="M16 23.7C18 23.7 19.7003 23.0003 21.1008 21.6008C22.5003 20.2003 23.2 18.5 23.2 16.5C23.2 14.5 22.5003 12.7997 21.1008 11.3992C19.7003 9.99973 18 9.3 16 9.3C14 9.3 12.2997 9.99973 10.8992 11.3992C9.49973 12.7997 8.8 14.5 8.8 16.5C8.8 18.5 9.49973 20.2003 10.8992 21.6008C12.2997 23.0003 14 23.7 16 23.7ZM16 18.1C15.5467 18.1 15.1669 17.9464 14.8608 17.6392C14.5536 17.3331 14.4 16.9533 14.4 16.5C14.4 16.0467 14.5536 15.6664 14.8608 15.3592C15.1669 15.0531 15.5467 14.9 16 14.9C16.4533 14.9 16.8336 15.0531 17.1408 15.3592C17.4469 15.6664 17.6 16.0467 17.6 16.5C17.6 16.9533 17.4469 17.3331 17.1408 17.6392C16.8336 17.9464 16.4533 18.1 16 18.1ZM16 32.5C13.7867 32.5 11.7067 32.0797 9.76 31.2392C7.81333 30.3997 6.12 29.26 4.68 27.82C3.24 26.38 2.10027 24.6867 1.2608 22.74C0.420267 20.7933 0 18.7133 0 16.5C0 14.2867 0.420267 12.2067 1.2608 10.26C2.10027 8.31333 3.24 6.62 4.68 5.18C6.12 3.74 7.81333 2.59973 9.76 1.7592C11.7067 0.919733 13.7867 0.5 16 0.5C18.2133 0.5 20.2933 0.919733 22.24 1.7592C24.1867 2.59973 25.88 3.74 27.32 5.18C28.76 6.62 29.8997 8.31333 30.7392 10.26C31.5797 12.2067 32 14.2867 32 16.5C32 18.7133 31.5797 20.7933 30.7392 22.74C29.8997 24.6867 28.76 26.38 27.32 27.82C25.88 29.26 24.1867 30.3997 22.24 31.2392C20.2933 32.0797 18.2133 32.5 16 32.5ZM16 29.3C19.5467 29.3 22.5669 28.0536 25.0608 25.5608C27.5536 23.0669 28.8 20.0467 28.8 16.5C28.8 12.9533 27.5536 9.93307 25.0608 7.4392C22.5669 4.9464 19.5467 3.7 16 3.7C12.4533 3.7 9.4336 4.9464 6.9408 7.4392C4.44693 9.93307 3.2 12.9533 3.2 16.5C3.2 20.0467 4.44693 23.0669 6.9408 25.5608C9.4336 28.0536 12.4533 29.3 16 29.3Z" fill="#F99D49"/>
</svg>
