<svg width="54" height="54" viewBox="0 0 54 54" fill="none" xmlns="http://www.w3.org/2000/svg">
<rect x="2" y="2" width="50" height="50" rx="8" stroke="#F99D49" stroke-width="4"/>
<g clip-path="url(#clip0_2_76)">
<path d="M39 12H21C19.35 12 18 13.35 18 15V33C18 34.65 19.35 36 21 36H39C40.65 36 42 34.65 42 33V15C42 13.35 40.65 12 39 12ZM34.5 19.5H31.5V27.555C31.5 29.46 30.15 31.215 28.26 31.455C27.6695 31.5357 27.0682 31.4747 26.5059 31.2772C25.9436 31.0796 25.4363 30.7511 25.026 30.3189C24.6157 29.8866 24.3141 29.3629 24.1461 28.791C23.9782 28.2191 23.9486 27.6155 24.06 27.03C24.36 25.38 25.83 24.105 27.51 24C28.455 23.94 29.31 24.24 30 24.765V18C30 17.175 30.675 16.5 31.5 16.5H34.5C35.325 16.5 36 17.175 36 18C36 18.825 35.325 19.5 34.5 19.5ZM13.5 18C12.675 18 12 18.675 12 19.5V39C12 40.65 13.35 42 15 42H34.5C35.325 42 36 41.325 36 40.5C36 39.675 35.325 39 34.5 39H16.5C15.675 39 15 38.325 15 37.5V19.5C15 18.675 14.325 18 13.5 18Z" fill="#F99D49"/>
</g>
<defs>
<clipPath id="clip0_2_76">
<rect width="30" height="30" fill="white" transform="translate(12 12)"/>
</clipPath>
</defs>
</svg>
