<svg width="18" height="29" viewBox="0 0 18 29" fill="none" xmlns="http://www.w3.org/2000/svg">
<path fill-rule="evenodd" clip-rule="evenodd" d="M8.06678 0H9.93322C14.3698 0 18 3.6302 18 8.06678V20.8518C18 25.2883 14.3698 28.9185 9.93322 28.9185H8.06678C3.6302 28.9185 0 25.2883 0 20.8518V8.06678C0 3.6302 3.6302 0 8.06678 0ZM7.89393 4.49116C8.18735 4.19775 8.58496 4.03238 8.9999 4.03119C9.41485 4.03238 9.81245 4.19775 10.1059 4.49116C10.3993 4.78457 10.5646 5.18218 10.5658 5.59713V10.002C10.5644 10.4168 10.399 10.8142 10.1056 11.1075C9.81221 11.4007 9.41472 11.566 8.9999 11.5672C8.58509 11.566 8.18759 11.4007 7.8942 11.1075C7.60081 10.8142 7.43535 10.4168 7.43396 10.002V5.59713C7.43516 5.18218 7.60052 4.78457 7.89393 4.49116Z" fill="#F99D49"/>
</svg>
