<svg width="54" height="54" viewBox="0 0 54 54" fill="none" xmlns="http://www.w3.org/2000/svg">
<rect x="2" y="2" width="50" height="50" rx="8" stroke="#F99D49" stroke-width="4"/>
<path d="M17.9062 20.6875C17.699 20.6875 17.5003 20.6052 17.3538 20.4587C17.2073 20.3122 17.125 20.1135 17.125 19.9062C17.125 19.699 17.2073 19.5003 17.3538 19.3538C17.5003 19.2073 17.699 19.125 17.9062 19.125H35.0938C35.301 19.125 35.4997 19.2073 35.6462 19.3538C35.7927 19.5003 35.875 19.699 35.875 19.9062C35.875 20.1135 35.7927 20.3122 35.6462 20.4587C35.4997 20.6052 35.301 20.6875 35.0938 20.6875H17.9062ZM21.0312 17.5625C20.824 17.5625 20.6253 17.4802 20.4788 17.3337C20.3323 17.1872 20.25 16.9885 20.25 16.7812C20.25 16.574 20.3323 16.3753 20.4788 16.2288C20.6253 16.0823 20.824 16 21.0312 16H31.9688C32.176 16 32.3747 16.0823 32.5212 16.2288C32.6677 16.3753 32.75 16.574 32.75 16.7812C32.75 16.9885 32.6677 17.1872 32.5212 17.3337C32.3747 17.4802 32.176 17.5625 31.9688 17.5625H21.0312ZM14 35.5312C14 36.1529 14.2469 36.749 14.6865 37.1885C15.126 37.6281 15.7221 37.875 16.3438 37.875H36.6562C37.2779 37.875 37.874 37.6281 38.3135 37.1885C38.7531 36.749 39 36.1529 39 35.5312V24.5938C39 23.9721 38.7531 23.376 38.3135 22.9365C37.874 22.4969 37.2779 22.25 36.6562 22.25H16.3438C15.7221 22.25 15.126 22.4969 14.6865 22.9365C14.2469 23.376 14 23.9721 14 24.5938V35.5312ZM23.7781 25.4734C23.9 25.4059 24.0377 25.3721 24.177 25.3757C24.3163 25.3793 24.4521 25.42 24.5703 25.4938L30.8203 29.4C30.9327 29.4702 31.0253 29.5679 31.0896 29.6838C31.1538 29.7997 31.1875 29.93 31.1875 30.0625C31.1875 30.195 31.1538 30.3253 31.0896 30.4412C31.0253 30.5571 30.9327 30.6548 30.8203 30.725L24.5703 34.6313C24.4521 34.7052 24.3162 34.7461 24.1768 34.7497C24.0373 34.7534 23.8995 34.7197 23.7775 34.6521C23.6555 34.5845 23.5539 34.4854 23.4831 34.3653C23.4123 34.2451 23.375 34.1082 23.375 33.9688V26.1562C23.3751 26.0168 23.4126 25.88 23.4835 25.7599C23.5544 25.6398 23.6561 25.5409 23.7781 25.4734Z" fill="#F99D49"/>
</svg>
