<svg width="54" height="54" viewBox="0 0 54 54" fill="none" xmlns="http://www.w3.org/2000/svg">
<rect x="2" y="2" width="50" height="50" rx="8" stroke="#F99D49" stroke-width="4"/>
<g clip-path="url(#clip0_2_70)">
<path d="M29.5263 15.9999H12.6842C11.7579 15.9999 11 16.7578 11 17.6841C11 18.6105 11.7579 19.3684 12.6842 19.3684H29.5263C30.4526 19.3684 31.2105 18.6105 31.2105 17.6841C31.2105 16.7578 30.4526 15.9999 29.5263 15.9999ZM29.5263 22.7368H12.6842C11.7579 22.7368 11 23.4947 11 24.421C11 25.3473 11.7579 26.1052 12.6842 26.1052H29.5263C30.4526 26.1052 31.2105 25.3473 31.2105 24.421C31.2105 23.4947 30.4526 22.7368 29.5263 22.7368ZM12.6842 32.842H22.7895C23.7158 32.842 24.4737 32.0842 24.4737 31.1578C24.4737 30.2315 23.7158 29.4736 22.7895 29.4736H12.6842C11.7579 29.4736 11 30.2315 11 31.1578C11 32.0842 11.7579 32.842 12.6842 32.842ZM37.9474 15.9999C36.0947 15.9999 34.5789 17.5157 34.5789 19.3684V29.7768C34.0568 29.5915 33.4842 29.4736 32.8947 29.4736C29.7958 29.4736 27.3705 32.2357 27.9263 35.4357C28.28 37.4736 29.9474 39.141 31.9853 39.4947C35.1853 40.0505 37.9474 37.6252 37.9474 34.5263V19.3684H41.3158C42.2421 19.3684 43 18.6105 43 17.6841C43 16.7578 42.2421 15.9999 41.3158 15.9999H37.9474Z" fill="#F99D49"/>
</g>
<defs>
<clipPath id="clip0_2_70">
<rect width="32" height="23.5744" fill="white" transform="translate(11 16)"/>
</clipPath>
</defs>
</svg>
