<svg width="54" height="54" viewBox="0 0 54 54" fill="none" xmlns="http://www.w3.org/2000/svg">
<rect x="2" y="2" width="50" height="50" rx="8" stroke="#F99D49" stroke-width="4"/>
<path d="M27.896 13.5559C27.8133 13.389 27.6855 13.2485 27.5272 13.1503C27.3689 13.052 27.1863 13 27 13C26.8137 13 26.6311 13.052 26.4728 13.1503C26.3145 13.2485 26.1867 13.389 26.104 13.5559L22.0101 21.8498L12.8563 23.1797C12.6716 23.2066 12.4981 23.2845 12.3554 23.4048C12.2127 23.5251 12.1065 23.683 12.0489 23.8605C11.9912 24.038 11.9844 24.2281 12.0292 24.4093C12.074 24.5904 12.1686 24.7555 12.3023 24.8857L18.9262 31.3416L17.3622 40.4594C17.3308 40.6432 17.3514 40.832 17.4217 41.0047C17.492 41.1774 17.6091 41.327 17.7599 41.4366C17.9107 41.5462 18.0892 41.6115 18.2751 41.625C18.461 41.6386 18.647 41.5999 18.8122 41.5134L27 37.2075L35.1878 41.5134C35.353 41.5999 35.539 41.6386 35.7249 41.625C35.9108 41.6115 36.0893 41.5462 36.2401 41.4366C36.3909 41.327 36.508 41.1774 36.5783 41.0047C36.6486 40.832 36.6692 40.6432 36.6378 40.4594L35.0738 31.3396L41.6977 24.8857C41.8314 24.7555 41.926 24.5904 41.9708 24.4093C42.0156 24.2281 42.0088 24.038 41.9511 23.8605C41.8935 23.683 41.7873 23.5251 41.6446 23.4048C41.5019 23.2845 41.3284 23.2066 41.1437 23.1797L31.9899 21.8498L27.896 13.5579V13.5559Z" fill="#F99D49"/>
</svg>
