<svg width="54" height="54" viewBox="0 0 54 54" fill="none" xmlns="http://www.w3.org/2000/svg">
<rect x="2" y="2" width="50" height="50" rx="8" stroke="#F99D49" stroke-width="4"/>
<g clip-path="url(#clip0_2_95)">
<path d="M20.09 24.428L19.22 27H17L20.724 17H23.292L27 27H24.666L23.796 24.428H20.09ZM23.358 22.956L22 18.912H21.902L20.544 22.956H23.36H23.358Z" fill="#F99D49"/>
<path d="M11 15C11 13.9391 11.4214 12.9217 12.1716 12.1716C12.9217 11.4214 13.9391 11 15 11H29C30.0609 11 31.0783 11.4214 31.8284 12.1716C32.5786 12.9217 33 13.9391 33 15V21H39C40.0609 21 41.0783 21.4214 41.8284 22.1716C42.5786 22.9217 43 23.9391 43 25V39C43 40.0609 42.5786 41.0783 41.8284 41.8284C41.0783 42.5786 40.0609 43 39 43H25C23.9391 43 22.9217 42.5786 22.1716 41.8284C21.4214 41.0783 21 40.0609 21 39V33H15C13.9391 33 12.9217 32.5786 12.1716 31.8284C11.4214 31.0783 11 30.0609 11 29V15ZM15 13C14.4696 13 13.9609 13.2107 13.5858 13.5858C13.2107 13.9609 13 14.4696 13 15V29C13 29.5304 13.2107 30.0391 13.5858 30.4142C13.9609 30.7893 14.4696 31 15 31H29C29.5304 31 30.0391 30.7893 30.4142 30.4142C30.7893 30.0391 31 29.5304 31 29V15C31 14.4696 30.7893 13.9609 30.4142 13.5858C30.0391 13.2107 29.5304 13 29 13H15ZM29.276 32.99C29.662 33.592 30.08 34.156 30.536 34.682C29.04 35.832 27.19 36.684 25 37.266C25.356 37.7 25.902 38.536 26.11 39C28.36 38.282 30.27 37.312 31.882 36.012C33.436 37.342 35.36 38.342 37.742 38.956C38.008 38.448 38.57 37.61 39 37.176C36.75 36.67 34.886 35.788 33.36 34.608C34.722 33.114 35.804 31.306 36.602 29.094H39V27H33V29.094H34.53C33.894 30.782 33.05 32.186 31.986 33.354C31.6921 33.0409 31.4151 32.7125 31.156 32.37C30.5916 32.7319 29.9449 32.9451 29.276 32.99Z" fill="#F99D49"/>
</g>
<defs>
<clipPath id="clip0_2_95">
<rect width="32" height="32" fill="white" transform="translate(11 11)"/>
</clipPath>
</defs>
</svg>
