<svg width="54" height="54" viewBox="0 0 54 54" fill="none" xmlns="http://www.w3.org/2000/svg">
<rect x="2" y="2" width="50" height="50" rx="8" stroke="#F99D49" stroke-width="4"/>
<g clip-path="url(#clip0_2_89)">
<path d="M24.6316 29.7895C26.2105 29.7895 27.8684 30.0421 29.6842 30.4842C28.4053 31.8579 27.7895 33.4684 27.7895 35.3158C27.7895 36.7211 28.1842 38.0474 29.0211 39.2632H12V36.1053C12 34.2263 13.4368 32.7105 16.3263 31.5579C19.2158 30.3895 21.9947 29.7895 24.6316 29.7895ZM24.6316 26.6316C22.9263 26.6316 21.4737 26.0158 20.1789 24.7842C18.9158 23.5526 18.3158 22.0684 18.3158 20.3158C18.3158 18.6105 18.9158 17.1579 20.1789 15.8632C21.4737 14.6 22.9263 14 24.6316 14C26.3842 14 27.8684 14.6 29.1 15.8632C30.3316 17.1579 30.9474 18.6105 30.9474 20.3158C30.9474 22.0684 30.3316 23.5526 29.1 24.7842C27.8684 26.0158 26.3842 26.6316 24.6316 26.6316ZM36.4737 23.4737H42V26.6316H38.8421V35.3158C38.8421 36.3627 38.4262 37.3667 37.6859 38.107C36.9457 38.8473 35.9416 39.2632 34.8947 39.2632C33.8478 39.2632 32.8438 38.8473 32.1035 38.107C31.3633 37.3667 30.9474 36.3627 30.9474 35.3158C30.9474 34.2689 31.3633 33.2649 32.1035 32.5246C32.8438 31.7843 33.8478 31.3684 34.8947 31.3684C35.4632 31.3684 35.9842 31.4789 36.4737 31.7V23.4737Z" fill="#F99D49"/>
</g>
<defs>
<clipPath id="clip0_2_89">
<rect width="30" height="25.2632" fill="white" transform="translate(12 14)"/>
</clipPath>
</defs>
</svg>
