<svg width="32" height="32" viewBox="0 0 32 32" fill="none" xmlns="http://www.w3.org/2000/svg">
<path d="M31.328 8.27103C31.1422 7.60676 30.788 7.00173 30.2997 6.51452C29.8115 6.02731 29.2057 5.67442 28.541 5.49003C26.046 4.82303 16.016 4.82303 16.016 4.82303C16.016 4.82303 6.005 4.80703 3.484 5.49003C2.8204 5.67523 2.2158 6.02849 1.72863 6.51566C1.24146 7.00282 0.888202 7.60743 0.703001 8.27103C0.229201 10.8253 -0.00415247 13.4183 0.00600148 16.016C0.00137839 18.6013 0.234696 21.1815 0.703001 23.724C0.888801 24.388 1.24216 24.993 1.72916 25.4811C2.21616 25.9691 2.82045 26.3238 3.484 26.511C5.979 27.178 16.016 27.178 16.016 27.178C16.016 27.178 26.021 27.178 28.541 26.511C29.2056 26.3246 29.8111 25.9703 30.2992 25.4822C30.7873 24.9941 31.1416 24.3887 31.328 23.724C31.787 21.183 32.011 18.599 31.995 16.016C32.011 13.416 31.792 10.828 31.328 8.27103ZM12.812 20.803V11.208L21.161 16.016L12.812 20.803Z" fill="#F99D49"/>
</svg>
